<svg width="24" height="24" viewBox="0 0 24 24" fill="none" xmlns="http://www.w3.org/2000/svg">
<path d="M23.25 20.5H23.5V20.25V18.75V18.5H23.25H14.463C16.3163 16.9408 17.5 14.6082 17.5 12C17.5 7.31318 13.6868 3.5 9 3.5C4.31318 3.5 0.5 7.31318 0.5 12C0.5 16.6868 4.31318 20.5 9 20.5H23.25ZM9 5.5C12.5834 5.5 15.5 8.41584 15.5 12C15.5 15.5842 12.5834 18.5 9 18.5C5.41655 18.5 2.5 15.5842 2.5 12C2.5 8.41584 5.41655 5.5 9 5.5ZM9 8.75C7.20743 8.75 5.75 10.2074 5.75 12C5.75 13.7926 7.20743 15.25 9 15.25C10.7926 15.25 12.25 13.7926 12.25 12C12.25 10.2074 10.7926 8.75 9 8.75ZM9 10.75C9.68918 10.75 10.25 11.3108 10.25 12C10.25 12.6892 9.68918 13.25 9 13.25C8.31082 13.25 7.75 12.6892 7.75 12C7.75 11.3108 8.31082 10.75 9 10.75Z" fill="white" stroke="white" stroke-width="0.5"/>
</svg>
